<svg width="128" height="24" viewBox="0 0 128 24" fill="none" xmlns="http://www.w3.org/2000/svg">
<g clip-path="url(#clip0_5678_143540)">
<path d="M23.9374 9.20646C23.7803 8.72049 23.3493 8.37532 22.8393 8.32936L15.9123 7.70038L13.1731 1.28914C12.9712 0.819283 12.5112 0.515137 12.0001 0.515137C11.4891 0.515137 11.0291 0.819283 10.8271 1.29024L8.08797 7.70038L1.15982 8.32936C0.65077 8.37642 0.220828 8.72049 0.0628038 9.20646C-0.0952203 9.69244 0.0507185 10.2255 0.435799 10.5615L5.67183 15.1535L4.12785 21.9548C4.01487 22.4548 4.20897 22.9718 4.62389 23.2717C4.84692 23.4328 5.10785 23.5149 5.37098 23.5149C5.59786 23.5149 5.8229 23.4537 6.02487 23.3329L12.0001 19.7617L17.9732 23.3329C18.4103 23.5958 18.9612 23.5718 19.3752 23.2717C19.7904 22.9709 19.9843 22.4537 19.8713 21.9548L18.3273 15.1535L23.5633 10.5624C23.9484 10.2255 24.0955 9.69335 23.9374 9.20646Z" fill="#FFC107"/>
</g>
<g clip-path="url(#clip1_5678_143540)">
<path d="M49.9374 9.20646C49.7803 8.72049 49.3493 8.37532 48.8393 8.32936L41.9123 7.70038L39.1731 1.28914C38.9712 0.819283 38.5112 0.515137 38.0001 0.515137C37.4891 0.515137 37.0291 0.819283 36.8271 1.29024L34.088 7.70038L27.1598 8.32936C26.6508 8.37642 26.2208 8.72049 26.0628 9.20646C25.9048 9.69244 26.0507 10.2255 26.4358 10.5615L31.6718 15.1535L30.1278 21.9548C30.0149 22.4548 30.209 22.9718 30.6239 23.2717C30.8469 23.4328 31.1079 23.5149 31.371 23.5149C31.5979 23.5149 31.8229 23.4537 32.0249 23.3329L38.0001 19.7617L43.9732 23.3329C44.4103 23.5958 44.9612 23.5718 45.3752 23.2717C45.7904 22.9709 45.9843 22.4537 45.8713 21.9548L44.3273 15.1535L49.5633 10.5624C49.9484 10.2255 50.0955 9.69335 49.9374 9.20646Z" fill="#FFC107"/>
</g>
<g clip-path="url(#clip2_5678_143540)">
<path d="M75.9374 9.20646C75.7803 8.72049 75.3493 8.37532 74.8393 8.32936L67.9123 7.70038L65.1731 1.28914C64.9712 0.819283 64.5112 0.515137 64.0001 0.515137C63.4891 0.515137 63.0291 0.819283 62.8271 1.29024L60.088 7.70038L53.1598 8.32936C52.6508 8.37642 52.2208 8.72049 52.0628 9.20646C51.9048 9.69244 52.0507 10.2255 52.4358 10.5615L57.6718 15.1535L56.1278 21.9548C56.0149 22.4548 56.209 22.9718 56.6239 23.2717C56.8469 23.4328 57.1079 23.5149 57.371 23.5149C57.5979 23.5149 57.8229 23.4537 58.0249 23.3329L64.0001 19.7617L69.9732 23.3329C70.4103 23.5958 70.9612 23.5718 71.3752 23.2717C71.7904 22.9709 71.9843 22.4537 71.8713 21.9548L70.3273 15.1535L75.5633 10.5624C75.9484 10.2255 76.0955 9.69335 75.9374 9.20646Z" fill="#FFC107"/>
</g>
<g clip-path="url(#clip3_5678_143540)">
<path d="M101.937 9.20646C101.78 8.72049 101.349 8.37532 100.839 8.32936L93.9123 7.70038L91.1731 1.28914C90.9712 0.819283 90.5112 0.515137 90.0001 0.515137C89.4891 0.515137 89.0291 0.819283 88.8271 1.29024L86.088 7.70038L79.1598 8.32936C78.6508 8.37642 78.2208 8.72049 78.0628 9.20646C77.9048 9.69244 78.0507 10.2255 78.4358 10.5615L83.6718 15.1535L82.1278 21.9548C82.0149 22.4548 82.209 22.9718 82.6239 23.2717C82.8469 23.4328 83.1079 23.5149 83.371 23.5149C83.5979 23.5149 83.8229 23.4537 84.0249 23.3329L90.0001 19.7617L95.9732 23.3329C96.4103 23.5958 96.9612 23.5718 97.3752 23.2717C97.7904 22.9709 97.9843 22.4537 97.8713 21.9548L96.3273 15.1535L101.563 10.5624C101.948 10.2255 102.095 9.69335 101.937 9.20646Z" fill="#FFC107"/>
</g>
<g clip-path="url(#clip4_5678_143540)">
<path d="M127.937 9.20646C127.78 8.72049 127.349 8.37532 126.839 8.32936L119.912 7.70038L117.173 1.28914C116.971 0.819283 116.511 0.515137 116 0.515137C115.489 0.515137 115.029 0.819283 114.827 1.29024L112.088 7.70038L105.16 8.32936C104.651 8.37642 104.221 8.72049 104.063 9.20646C103.905 9.69244 104.051 10.2255 104.436 10.5615L109.672 15.1535L108.128 21.9548C108.015 22.4548 108.209 22.9718 108.624 23.2717C108.847 23.4328 109.108 23.5149 109.371 23.5149C109.598 23.5149 109.823 23.4537 110.025 23.3329L116 19.7617L121.973 23.3329C122.41 23.5958 122.961 23.5718 123.375 23.2717C123.79 22.9709 123.984 22.4537 123.871 21.9548L122.327 15.1535L127.563 10.5624C127.948 10.2255 128.095 9.69335 127.937 9.20646Z" fill="#FFC107"/>
</g>
<defs>
<clipPath id="clip0_5678_143540">
<rect width="24" height="24" fill="white"/>
</clipPath>
<clipPath id="clip1_5678_143540">
<rect width="24" height="24" fill="white" transform="translate(26)"/>
</clipPath>
<clipPath id="clip2_5678_143540">
<rect width="24" height="24" fill="white" transform="translate(52)"/>
</clipPath>
<clipPath id="clip3_5678_143540">
<rect width="24" height="24" fill="white" transform="translate(78)"/>
</clipPath>
<clipPath id="clip4_5678_143540">
<rect width="24" height="24" fill="white" transform="translate(104)"/>
</clipPath>
</defs>
</svg>
